# MagicaVoxel @ Ephtracy

# group
o asleep-head1

# material
mtllib goodnight-moon-7-asleep-head1.mtl
usemtl palette

# normals
vn -1 0 0
vn 1 0 0
vn 0 0 1
vn 0 0 -1
vn 0 -1 0
vn 0 1 0

# texcoords
vt 0.0332031 0.5
vt 0.0527344 0.5
vt 0.994141 0.5

# verts
v 10.3 5.1 5.1
v 10.3 5.1 4.6
v 10.3 5.8 5.1
v 10.3 5.8 4.6
v 10.4 4.9 5.1
v 10.4 4.9 4.5
v 10.4 5 5.2
v 10.4 5 5.1
v 10.4 5 4.5
v 10.4 5 4.4
v 10.4 5.1 5.3
v 10.4 5.1 5.2
v 10.4 5.1 5.1
v 10.4 5.1 4.6
v 10.4 5.2 5.4
v 10.4 5.2 5.3
v 10.4 5.2 4.4
v 10.4 5.2 4.3
v 10.4 5.7 5.4
v 10.4 5.7 5.3
v 10.4 5.7 4.4
v 10.4 5.7 4.3
v 10.4 5.8 5.3
v 10.4 5.8 5.2
v 10.4 5.8 5.1
v 10.4 5.8 4.6
v 10.4 5.9 5.2
v 10.4 5.9 5.1
v 10.4 5.9 4.5
v 10.4 5.9 4.4
v 10.4 6 5.1
v 10.4 6 4.5
v 10.5 5.1 4.4
v 10.5 5.1 4.3
v 10.5 5.2 4.4
v 10.5 5.2 4.3
v 10.5 5.7 4.4
v 10.5 5.7 4.3
v 10.5 5.8 4.4
v 10.5 5.8 4.3
v 11 4.9 4.5
v 11 4.9 4.4
v 11 5 4.5
v 11 5 4.4
v 11 5.9 4.5
v 11 5.9 4.4
v 11 6 4.5
v 11 6 4.4
v 11.3 5.5 5.2
v 11.3 5.5 5.1
v 11.3 5.8 5.2
v 11.3 5.8 5.1
v 11.4 5.5 5.1
v 11.4 5.5 4.7
v 11.4 5.6 4.7
v 11.4 5.7 5.1
v 11.4 5.7 4.8
v 11.4 5.7 4.7
v 11.4 5.8 5.1
v 11.4 5.8 4.8
v 11.7 5 4.9
v 11.7 5 4.8
v 11.7 5.1 4.8
v 11.7 5.3 4.9
v 11.7 5.3 4.8
v 10.8 5.2 5.4
v 10.8 5.2 5.3
v 10.8 5.3 5.4
v 10.8 5.3 5.3
v 10.8 5.6 5.4
v 10.8 5.6 5.3
v 10.8 5.7 5.4
v 10.8 5.7 5.3
v 11 5 5.2
v 11 5 5.1
v 11 5.1 5.3
v 11 5.1 5.2
v 11 5.1 5.1
v 11 5.2 5.3
v 11 5.2 5.2
v 11 5.7 5.3
v 11 5.7 5.2
v 11 5.8 5.3
v 11 5.8 5.2
v 11 5.8 5.1
v 11 5.9 5.2
v 11 5.9 5.1
v 11.1 4.9 5.1
v 11.1 4.9 4.4
v 11.1 5 5
v 11.1 5 4.4
v 11.1 5.1 5.2
v 11.1 5.1 5.1
v 11.1 5.1 5
v 11.1 5.1 4.4
v 11.1 5.1 4.3
v 11.1 5.2 5.3
v 11.1 5.2 5.2
v 11.1 5.2 5.1
v 11.1 5.7 5.3
v 11.1 5.7 5.2
v 11.1 5.7 5.1
v 11.1 5.8 5.2
v 11.1 5.8 5.1
v 11.1 5.8 5
v 11.1 5.8 4.4
v 11.1 5.8 4.3
v 11.1 5.9 5
v 11.1 5.9 4.4
v 11.1 6 5.1
v 11.1 6 4.4
v 11.2 5 5
v 11.2 5 4.8
v 11.2 5 4.5
v 11.2 5 4.4
v 11.2 5.1 5.1
v 11.2 5.1 5
v 11.2 5.1 4.8
v 11.2 5.2 5.2
v 11.2 5.2 5.1
v 11.2 5.3 4.8
v 11.2 5.3 4.7
v 11.2 5.3 4.5
v 11.2 5.6 4.8
v 11.2 5.6 4.7
v 11.2 5.6 4.5
v 11.2 5.7 5.2
v 11.2 5.7 5.1
v 11.2 5.8 5.1
v 11.2 5.8 5
v 11.2 5.8 4.8
v 11.2 5.9 5
v 11.2 5.9 4.8
v 11.2 5.9 4.5
v 11.2 5.9 4.4
v 11.3 5.6 4.8
v 11.3 5.6 4.7
v 11.3 5.7 4.8
v 11.3 5.7 4.7
v 11.4 5.6 4.7
v 11.4 5.6 4.6
v 11.4 5.7 4.7
v 11.4 5.7 4.6
v 11.5 5.6 4.6
v 11.5 5.6 4.5
v 11.5 5.7 4.6
v 11.5 5.8 4.8
v 11.5 5.8 4.6
v 11.5 5.9 4.8
v 11.5 5.9 4.5
v 11.6 5.7 4.7
v 11.6 5.7 4.6
v 11.6 5.8 4.7
v 11.6 5.8 4.6
v 11.7 5.5 5.2
v 11.7 5.5 4.7
v 11.7 5.8 5.2
v 11.7 5.8 4.7
v 11.8 5 4.9
v 11.8 5 4.5
v 11.8 5.3 4.9
v 11.8 5.3 4.5
v 10.4 5.2 5.4
v 10.4 5.7 5.4
v 10.6 5.4 5.4
v 10.6 5.5 5.4
v 10.7 5.3 5.4
v 10.7 5.4 5.4
v 10.7 5.5 5.4
v 10.7 5.6 5.4
v 10.8 5.2 5.4
v 10.8 5.3 5.4
v 10.8 5.6 5.4
v 10.8 5.7 5.4
v 10.4 5.1 5.3
v 10.4 5.2 5.3
v 10.4 5.7 5.3
v 10.4 5.8 5.3
v 10.8 5.2 5.3
v 10.8 5.3 5.3
v 10.8 5.6 5.3
v 10.8 5.7 5.3
v 10.9 5.2 5.3
v 10.9 5.4 5.3
v 10.9 5.5 5.3
v 10.9 5.7 5.3
v 11 5.1 5.3
v 11 5.2 5.3
v 11 5.4 5.3
v 11 5.5 5.3
v 11 5.7 5.3
v 11 5.8 5.3
v 11.1 5.2 5.3
v 11.1 5.7 5.3
v 10.4 5 5.2
v 10.4 5.1 5.2
v 10.4 5.8 5.2
v 10.4 5.9 5.2
v 11 5 5.2
v 11 5.1 5.2
v 11 5.2 5.2
v 11 5.7 5.2
v 11 5.8 5.2
v 11 5.9 5.2
v 11.1 5.1 5.2
v 11.1 5.2 5.2
v 11.1 5.7 5.2
v 11.1 5.8 5.2
v 11.2 5.2 5.2
v 11.2 5.7 5.2
v 11.3 5.5 5.2
v 11.3 5.8 5.2
v 11.7 5.5 5.2
v 11.7 5.8 5.2
v 10.3 5.1 5.1
v 10.3 5.8 5.1
v 10.4 4.9 5.1
v 10.4 5 5.1
v 10.4 5.1 5.1
v 10.4 5.8 5.1
v 10.4 5.9 5.1
v 10.4 6 5.1
v 11 5 5.1
v 11 5.1 5.1
v 11 5.8 5.1
v 11 5.9 5.1
v 11.1 4.9 5.1
v 11.1 5.1 5.1
v 11.1 5.2 5.1
v 11.1 5.7 5.1
v 11.1 5.8 5.1
v 11.1 6 5.1
v 11.2 5.1 5.1
v 11.2 5.2 5.1
v 11.2 5.7 5.1
v 11.2 5.8 5.1
v 11.1 5 5
v 11.1 5.1 5
v 11.1 5.8 5
v 11.1 5.9 5
v 11.2 5 5
v 11.2 5.1 5
v 11.2 5.8 5
v 11.2 5.9 5
v 11.7 5 4.9
v 11.7 5.3 4.9
v 11.8 5 4.9
v 11.8 5.3 4.9
v 11.2 5 4.8
v 11.2 5.1 4.8
v 11.2 5.3 4.8
v 11.2 5.6 4.8
v 11.2 5.8 4.8
v 11.2 5.9 4.8
v 11.3 5.6 4.8
v 11.3 5.7 4.8
v 11.4 5.7 4.8
v 11.4 5.8 4.8
v 11.5 5.8 4.8
v 11.5 5.9 4.8
v 11.7 5 4.8
v 11.7 5.1 4.8
v 11.7 5.3 4.8
v 11.3 5.6 4.7
v 11.3 5.7 4.7
v 11.4 5.6 4.7
v 11.4 5.7 4.7
v 11.4 5.6 4.6
v 11.4 5.7 4.6
v 11.5 5.6 4.6
v 11.5 5.7 4.6
v 11.3 5.5 5.1
v 11.3 5.8 5.1
v 11.4 5.5 5.1
v 11.4 5.7 5.1
v 11.4 5.8 5.1
v 11.4 5.5 4.7
v 11.4 5.6 4.7
v 11.4 5.7 4.7
v 11.5 5.5 4.7
v 11.5 5.7 4.7
v 11.6 5.7 4.7
v 11.6 5.8 4.7
v 11.7 5.5 4.7
v 11.7 5.8 4.7
v 10.3 5.1 4.6
v 10.3 5.8 4.6
v 10.4 5.1 4.6
v 10.4 5.8 4.6
v 11.5 5.7 4.6
v 11.5 5.8 4.6
v 11.6 5.7 4.6
v 11.6 5.8 4.6
v 10.4 4.9 4.5
v 10.4 5 4.5
v 10.4 5.9 4.5
v 10.4 6 4.5
v 11 4.9 4.5
v 11 5 4.5
v 11 5.9 4.5
v 11 6 4.5
v 11.2 5 4.5
v 11.2 5.3 4.5
v 11.2 5.6 4.5
v 11.2 5.9 4.5
v 11.5 5.6 4.5
v 11.5 5.9 4.5
v 11.8 5 4.5
v 11.8 5.3 4.5
v 10.4 5 4.4
v 10.4 5.2 4.4
v 10.4 5.7 4.4
v 10.4 5.9 4.4
v 10.5 5.1 4.4
v 10.5 5.2 4.4
v 10.5 5.7 4.4
v 10.5 5.8 4.4
v 11 4.9 4.4
v 11 5 4.4
v 11 5.9 4.4
v 11 6 4.4
v 11.1 4.9 4.4
v 11.1 5 4.4
v 11.1 5.1 4.4
v 11.1 5.8 4.4
v 11.1 5.9 4.4
v 11.1 6 4.4
v 11.2 5 4.4
v 11.2 5.9 4.4
v 10.4 5.2 4.3
v 10.4 5.7 4.3
v 10.5 5.1 4.3
v 10.5 5.2 4.3
v 10.5 5.7 4.3
v 10.5 5.8 4.3
v 11.1 5.1 4.3
v 11.1 5.8 4.3
v 10.4 4.9 5.1
v 11.1 4.9 5.1
v 10.4 4.9 4.5
v 11 4.9 4.5
v 11 4.9 4.4
v 11.1 4.9 4.4
v 10.4 5 5.2
v 11 5 5.2
v 10.4 5 5.1
v 11 5 5.1
v 11.1 5 5
v 11.2 5 5
v 11.7 5 4.9
v 11.8 5 4.9
v 11.2 5 4.8
v 11.7 5 4.8
v 10.4 5 4.5
v 11 5 4.5
v 11.2 5 4.5
v 11.8 5 4.5
v 10.4 5 4.4
v 11 5 4.4
v 11.1 5 4.4
v 11.2 5 4.4
v 10.4 5.1 5.3
v 11 5.1 5.3
v 10.4 5.1 5.2
v 11 5.1 5.2
v 11.1 5.1 5.2
v 10.3 5.1 5.1
v 10.4 5.1 5.1
v 11 5.1 5.1
v 11.1 5.1 5.1
v 11.2 5.1 5.1
v 11.1 5.1 5
v 11.2 5.1 5
v 10.3 5.1 4.6
v 10.4 5.1 4.6
v 10.5 5.1 4.4
v 11.1 5.1 4.4
v 10.5 5.1 4.3
v 11.1 5.1 4.3
v 10.4 5.2 5.4
v 10.8 5.2 5.4
v 10.4 5.2 5.3
v 10.8 5.2 5.3
v 11 5.2 5.3
v 11.1 5.2 5.3
v 11 5.2 5.2
v 11.1 5.2 5.2
v 11.2 5.2 5.2
v 11.1 5.2 5.1
v 11.2 5.2 5.1
v 10.4 5.2 4.4
v 10.5 5.2 4.4
v 10.4 5.2 4.3
v 10.5 5.2 4.3
v 11.3 5.5 5.2
v 11.7 5.5 5.2
v 11.3 5.5 5.1
v 11.4 5.5 5.1
v 11.5 5.5 5.1
v 11.4 5.5 4.7
v 11.5 5.5 4.7
v 11.7 5.5 4.7
v 11.2 5.6 4.8
v 11.3 5.6 4.8
v 11.2 5.6 4.7
v 11.3 5.6 4.7
v 11.4 5.6 4.7
v 11.3 5.6 4.6
v 11.4 5.6 4.6
v 11.5 5.6 4.6
v 11.2 5.6 4.5
v 11.5 5.6 4.5
v 11.3 5.7 4.8
v 11.4 5.7 4.8
v 11.3 5.7 4.7
v 11.4 5.7 4.7
v 11.5 5.7 4.7
v 11.6 5.7 4.7
v 11.4 5.7 4.6
v 11.5 5.7 4.6
v 11.6 5.7 4.6
v 11.7 5.3 4.9
v 11.8 5.3 4.9
v 11.2 5.3 4.8
v 11.7 5.3 4.8
v 11.2 5.3 4.7
v 11.7 5.3 4.7
v 11.2 5.3 4.5
v 11.8 5.3 4.5
v 10.4 5.7 5.4
v 10.8 5.7 5.4
v 10.4 5.7 5.3
v 10.8 5.7 5.3
v 11 5.7 5.3
v 11.1 5.7 5.3
v 11 5.7 5.2
v 11.1 5.7 5.2
v 11.2 5.7 5.2
v 11.1 5.7 5.1
v 11.2 5.7 5.1
v 10.4 5.7 4.4
v 10.5 5.7 4.4
v 10.4 5.7 4.3
v 10.5 5.7 4.3
v 10.4 5.8 5.3
v 11 5.8 5.3
v 10.4 5.8 5.2
v 11 5.8 5.2
v 11.1 5.8 5.2
v 11.3 5.8 5.2
v 11.7 5.8 5.2
v 10.3 5.8 5.1
v 10.4 5.8 5.1
v 11 5.8 5.1
v 11.1 5.8 5.1
v 11.2 5.8 5.1
v 11.3 5.8 5.1
v 11.4 5.8 5.1
v 11.1 5.8 5
v 11.2 5.8 5
v 11.4 5.8 4.8
v 11.5 5.8 4.8
v 11.6 5.8 4.7
v 11.7 5.8 4.7
v 10.3 5.8 4.6
v 10.4 5.8 4.6
v 11.5 5.8 4.6
v 11.6 5.8 4.6
v 10.5 5.8 4.4
v 11.1 5.8 4.4
v 10.5 5.8 4.3
v 11.1 5.8 4.3
v 10.4 5.9 5.2
v 11 5.9 5.2
v 10.4 5.9 5.1
v 11 5.9 5.1
v 11.1 5.9 5
v 11.2 5.9 5
v 11.2 5.9 4.8
v 11.5 5.9 4.8
v 10.4 5.9 4.5
v 11 5.9 4.5
v 11.2 5.9 4.5
v 11.5 5.9 4.5
v 10.4 5.9 4.4
v 11 5.9 4.4
v 11.1 5.9 4.4
v 11.2 5.9 4.4
v 10.4 6 5.1
v 11.1 6 5.1
v 10.4 6 4.5
v 11 6 4.5
v 11 6 4.4
v 11.1 6 4.4

# faces
f 3/1/1 2/1/1 1/1/1
f 4/1/1 2/1/1 3/1/1
f 8/1/1 6/1/1 5/1/1
f 9/1/1 6/1/1 8/1/1
f 12/1/1 8/1/1 7/1/1
f 12/1/1 10/1/1 9/1/1
f 12/1/1 9/1/1 8/1/1
f 13/1/1 10/1/1 12/1/1
f 14/1/1 10/1/1 13/1/1
f 16/1/1 12/1/1 11/1/1
f 16/1/1 13/1/1 12/1/1
f 17/1/1 10/1/1 14/1/1
f 19/1/1 16/1/1 15/1/1
f 20/1/1 13/1/1 16/1/1
f 20/1/1 16/1/1 19/1/1
f 21/1/1 18/1/1 17/1/1
f 21/1/1 17/1/1 14/1/1
f 22/1/1 18/1/1 21/1/1
f 23/1/1 13/1/1 20/1/1
f 24/1/1 13/1/1 23/1/1
f 25/1/1 13/1/1 24/1/1
f 26/1/1 21/1/1 14/1/1
f 27/1/1 25/1/1 24/1/1
f 27/1/1 26/1/1 25/1/1
f 28/1/1 26/1/1 27/1/1
f 29/1/1 21/1/1 26/1/1
f 29/1/1 26/1/1 28/1/1
f 30/1/1 21/1/1 29/1/1
f 31/1/1 29/1/1 28/1/1
f 32/1/1 29/1/1 31/1/1
f 35/1/1 34/1/1 33/1/1
f 36/1/1 34/1/1 35/1/1
f 39/1/1 38/1/1 37/1/1
f 40/1/1 38/1/1 39/1/1
f 43/1/1 42/1/1 41/1/1
f 44/1/1 42/1/1 43/1/1
f 47/1/1 46/1/1 45/1/1
f 48/1/1 46/1/1 47/1/1
f 51/1/1 50/1/1 49/1/1
f 52/1/1 50/1/1 51/1/1
f 55/2/1 54/2/1 53/2/1
f 56/2/1 55/2/1 53/2/1
f 57/2/1 55/2/1 56/2/1
f 58/2/1 55/2/1 57/2/1
f 59/1/1 57/1/1 56/1/1
f 60/1/1 57/1/1 59/1/1
f 63/1/1 62/1/1 61/1/1
f 64/1/1 63/1/1 61/1/1
f 65/1/1 63/1/1 64/1/1
f 66/1/2 67/1/2 68/1/2
f 68/1/2 67/1/2 69/1/2
f 68/3/2 69/3/2 70/3/2
f 70/3/2 69/3/2 71/3/2
f 70/1/2 71/1/2 72/1/2
f 72/1/2 71/1/2 73/1/2
f 74/1/2 75/1/2 77/1/2
f 77/1/2 75/1/2 78/1/2
f 76/1/2 77/1/2 79/1/2
f 79/1/2 77/1/2 80/1/2
f 81/1/2 82/1/2 83/1/2
f 83/1/2 82/1/2 84/1/2
f 84/1/2 85/1/2 86/1/2
f 86/1/2 85/1/2 87/1/2
f 88/1/2 89/1/2 90/1/2
f 90/1/2 89/1/2 91/1/2
f 88/1/2 90/1/2 93/1/2
f 93/1/2 90/1/2 94/1/2
f 92/1/2 93/1/2 98/1/2
f 98/1/2 93/1/2 99/1/2
f 97/1/2 98/1/2 100/1/2
f 100/1/2 98/1/2 101/1/2
f 101/1/2 102/1/2 103/1/2
f 103/1/2 102/1/2 104/1/2
f 95/1/2 96/1/2 106/1/2
f 106/1/2 96/1/2 107/1/2
f 104/1/2 105/1/2 108/1/2
f 104/1/2 108/1/2 110/1/2
f 108/1/2 109/1/2 110/1/2
f 110/1/2 109/1/2 111/1/2
f 112/1/2 113/1/2 117/1/2
f 117/1/2 113/1/2 118/1/2
f 116/1/2 117/1/2 120/1/2
f 117/1/2 118/1/2 120/1/2
f 120/1/2 118/1/2 121/1/2
f 119/1/2 120/1/2 121/1/2
f 114/1/2 115/1/2 123/1/2
f 121/1/2 122/1/2 124/1/2
f 122/1/2 123/1/2 124/1/2
f 119/1/2 121/1/2 124/1/2
f 124/1/2 123/1/2 125/1/2
f 123/1/2 115/1/2 126/1/2
f 125/1/2 123/1/2 126/1/2
f 119/1/2 124/1/2 127/1/2
f 127/1/2 124/1/2 128/1/2
f 128/1/2 124/1/2 129/1/2
f 129/1/2 124/1/2 130/1/2
f 130/1/2 124/1/2 131/1/2
f 130/1/2 131/1/2 132/1/2
f 132/1/2 131/1/2 133/1/2
f 126/1/2 115/1/2 134/1/2
f 134/1/2 115/1/2 135/1/2
f 136/2/2 137/2/2 138/2/2
f 138/2/2 137/2/2 139/2/2
f 140/2/2 141/2/2 142/2/2
f 142/2/2 141/2/2 143/2/2
f 144/1/2 145/1/2 146/1/2
f 146/1/2 145/1/2 148/1/2
f 147/1/2 148/1/2 149/1/2
f 148/1/2 145/1/2 150/1/2
f 149/1/2 148/1/2 150/1/2
f 151/1/2 152/1/2 153/1/2
f 153/1/2 152/1/2 154/1/2
f 155/1/2 156/1/2 157/1/2
f 157/1/2 156/1/2 158/1/2
f 159/1/2 160/1/2 161/1/2
f 161/1/2 160/1/2 162/1/2
f 165/1/3 164/1/3 163/1/3
f 166/1/3 164/1/3 165/1/3
f 167/1/3 165/1/3 163/1/3
f 168/3/3 166/3/3 165/3/3
f 168/1/3 165/1/3 167/1/3
f 169/1/3 164/1/3 166/1/3
f 169/3/3 166/3/3 168/3/3
f 170/1/3 164/1/3 169/1/3
f 171/1/3 167/1/3 163/1/3
f 172/3/3 168/3/3 167/3/3
f 172/1/3 167/1/3 171/1/3
f 172/3/3 169/3/3 168/3/3
f 172/3/3 170/3/3 169/3/3
f 173/1/3 164/1/3 170/1/3
f 173/3/3 170/3/3 172/3/3
f 174/1/3 164/1/3 173/1/3
f 179/1/3 176/1/3 175/1/3
f 182/1/3 178/1/3 177/1/3
f 183/1/3 181/1/3 180/1/3
f 183/1/3 182/1/3 181/1/3
f 183/1/3 179/1/3 175/1/3
f 183/1/3 180/1/3 179/1/3
f 184/1/3 182/1/3 183/1/3
f 185/1/3 182/1/3 184/1/3
f 186/1/3 178/1/3 182/1/3
f 186/1/3 182/1/3 185/1/3
f 187/1/3 183/1/3 175/1/3
f 188/3/3 184/3/3 183/3/3
f 188/1/3 183/1/3 187/1/3
f 189/1/3 185/1/3 184/1/3
f 189/3/3 184/3/3 188/3/3
f 190/3/3 186/3/3 185/3/3
f 190/1/3 185/1/3 189/1/3
f 191/1/3 178/1/3 186/1/3
f 191/3/3 186/3/3 190/3/3
f 192/1/3 178/1/3 191/1/3
f 193/1/3 190/1/3 189/1/3
f 193/1/3 191/1/3 190/1/3
f 193/1/3 189/1/3 188/1/3
f 194/1/3 191/1/3 193/1/3
f 199/1/3 196/1/3 195/1/3
f 200/1/3 196/1/3 199/1/3
f 203/1/3 198/1/3 197/1/3
f 204/1/3 198/1/3 203/1/3
f 205/1/3 201/1/3 200/1/3
f 206/1/3 201/1/3 205/1/3
f 207/1/3 203/1/3 202/1/3
f 208/1/3 203/1/3 207/1/3
f 209/1/3 207/1/3 206/1/3
f 210/1/3 207/1/3 209/1/3
f 213/1/3 212/1/3 211/1/3
f 214/1/3 212/1/3 213/1/3
f 219/1/3 216/1/3 215/1/3
f 220/1/3 216/1/3 219/1/3
f 223/1/3 218/1/3 217/1/3
f 226/1/3 222/1/3 221/1/3
f 227/1/3 224/1/3 223/1/3
f 227/1/3 223/1/3 217/1/3
f 228/1/3 224/1/3 227/1/3
f 231/1/3 226/1/3 225/1/3
f 232/1/3 222/1/3 226/1/3
f 232/1/3 226/1/3 231/1/3
f 233/1/3 229/1/3 228/1/3
f 234/1/3 229/1/3 233/1/3
f 235/1/3 231/1/3 230/1/3
f 236/1/3 231/1/3 235/1/3
f 241/1/3 238/1/3 237/1/3
f 242/1/3 238/1/3 241/1/3
f 243/1/3 240/1/3 239/1/3
f 244/1/3 240/1/3 243/1/3
f 247/1/3 246/1/3 245/1/3
f 248/1/3 246/1/3 247/1/3
f 255/2/3 253/2/3 252/2/3
f 256/2/3 253/2/3 255/2/3
f 257/2/3 253/2/3 256/2/3
f 258/1/3 254/1/3 253/1/3
f 258/2/3 253/2/3 257/2/3
f 259/1/3 254/1/3 258/1/3
f 260/1/3 254/1/3 259/1/3
f 261/1/3 250/1/3 249/1/3
f 262/2/3 251/2/3 250/2/3
f 262/1/3 250/1/3 261/1/3
f 263/2/3 251/2/3 262/2/3
f 266/2/3 265/2/3 264/2/3
f 267/2/3 265/2/3 266/2/3
f 270/1/3 269/1/3 268/1/3
f 271/1/3 269/1/3 270/1/3
f 272/1/4 273/1/4 274/1/4
f 274/1/4 273/1/4 275/1/4
f 275/1/4 273/1/4 276/1/4
f 277/2/4 278/2/4 280/2/4
f 278/2/4 279/2/4 280/2/4
f 280/2/4 279/2/4 281/2/4
f 280/1/4 281/1/4 282/1/4
f 280/1/4 282/1/4 284/1/4
f 282/1/4 283/1/4 284/1/4
f 284/1/4 283/1/4 285/1/4
f 286/1/4 287/1/4 288/1/4
f 288/1/4 287/1/4 289/1/4
f 290/1/4 291/1/4 292/1/4
f 292/1/4 291/1/4 293/1/4
f 294/1/4 295/1/4 298/1/4
f 298/1/4 295/1/4 299/1/4
f 296/1/4 297/1/4 300/1/4
f 300/1/4 297/1/4 301/1/4
f 304/1/4 305/1/4 306/1/4
f 306/1/4 305/1/4 307/1/4
f 302/1/4 303/1/4 308/1/4
f 308/1/4 303/1/4 309/1/4
f 310/1/4 311/1/4 314/1/4
f 314/1/4 311/1/4 315/1/4
f 312/1/4 313/1/4 316/1/4
f 316/1/4 313/1/4 317/1/4
f 310/1/4 314/1/4 319/1/4
f 317/1/4 313/1/4 320/1/4
f 318/1/4 319/1/4 322/1/4
f 319/1/4 314/1/4 323/1/4
f 322/1/4 319/1/4 323/1/4
f 323/1/4 314/1/4 324/1/4
f 320/1/4 321/1/4 325/1/4
f 317/1/4 320/1/4 325/1/4
f 325/1/4 321/1/4 326/1/4
f 326/1/4 321/1/4 327/1/4
f 323/1/4 324/1/4 328/1/4
f 325/1/4 326/1/4 328/1/4
f 324/1/4 325/1/4 328/1/4
f 328/1/4 326/1/4 329/1/4
f 330/1/4 331/1/4 333/1/4
f 333/1/4 331/1/4 334/1/4
f 332/1/4 333/1/4 336/1/4
f 334/1/4 335/1/4 336/1/4
f 333/1/4 334/1/4 336/1/4
f 336/1/4 335/1/4 337/1/4
f 340/1/5 339/1/5 338/1/5
f 341/1/5 339/1/5 340/1/5
f 342/1/5 339/1/5 341/1/5
f 343/1/5 339/1/5 342/1/5
f 346/1/5 345/1/5 344/1/5
f 347/1/5 345/1/5 346/1/5
f 352/1/5 349/1/5 348/1/5
f 353/1/5 351/1/5 350/1/5
f 356/1/5 352/1/5 348/1/5
f 356/1/5 353/1/5 352/1/5
f 357/1/5 351/1/5 353/1/5
f 357/1/5 353/1/5 356/1/5
f 358/1/5 355/1/5 354/1/5
f 359/1/5 355/1/5 358/1/5
f 360/1/5 356/1/5 348/1/5
f 361/1/5 356/1/5 360/1/5
f 364/1/5 363/1/5 362/1/5
f 365/1/5 363/1/5 364/1/5
f 369/1/5 366/1/5 365/1/5
f 370/1/5 366/1/5 369/1/5
f 372/1/5 371/1/5 370/1/5
f 373/1/5 371/1/5 372/1/5
f 374/1/5 368/1/5 367/1/5
f 375/1/5 368/1/5 374/1/5
f 378/1/5 377/1/5 376/1/5
f 379/1/5 377/1/5 378/1/5
f 382/1/5 381/1/5 380/1/5
f 383/1/5 381/1/5 382/1/5
f 386/1/5 385/1/5 384/1/5
f 387/1/5 385/1/5 386/1/5
f 389/1/5 388/1/5 387/1/5
f 390/1/5 388/1/5 389/1/5
f 393/1/5 392/1/5 391/1/5
f 394/1/5 392/1/5 393/1/5
f 397/1/5 396/1/5 395/1/5
f 398/1/5 396/1/5 397/1/5
f 399/1/5 396/1/5 398/1/5
f 400/2/5 399/2/5 398/2/5
f 401/1/5 396/1/5 399/1/5
f 401/2/5 399/2/5 400/2/5
f 402/1/5 396/1/5 401/1/5
f 405/2/5 404/2/5 403/2/5
f 406/2/5 404/2/5 405/2/5
f 408/1/5 406/1/5 405/1/5
f 408/2/5 407/2/5 406/2/5
f 409/2/5 407/2/5 408/2/5
f 411/1/5 408/1/5 405/1/5
f 411/1/5 410/1/5 409/1/5
f 411/1/5 409/1/5 408/1/5
f 412/1/5 410/1/5 411/1/5
f 415/2/5 414/2/5 413/2/5
f 416/2/5 414/2/5 415/2/5
f 419/1/5 418/1/5 417/1/5
f 419/1/5 417/1/5 416/1/5
f 420/1/5 418/1/5 419/1/5
f 421/1/5 418/1/5 420/1/5
f 422/1/6 423/1/6 425/1/6
f 424/2/6 425/2/6 426/2/6
f 425/1/6 423/1/6 427/1/6
f 426/2/6 425/2/6 427/2/6
f 426/1/6 427/1/6 428/1/6
f 427/1/6 423/1/6 429/1/6
f 428/1/6 427/1/6 429/1/6
f 430/1/6 431/1/6 432/1/6
f 432/1/6 431/1/6 433/1/6
f 434/1/6 435/1/6 436/1/6
f 436/1/6 435/1/6 437/1/6
f 437/1/6 438/1/6 439/1/6
f 439/1/6 438/1/6 440/1/6
f 441/1/6 442/1/6 443/1/6
f 443/1/6 442/1/6 444/1/6
f 445/1/6 446/1/6 447/1/6
f 447/1/6 446/1/6 448/1/6
f 448/1/6 449/1/6 454/1/6
f 454/1/6 449/1/6 455/1/6
f 450/1/6 451/1/6 457/1/6
f 457/1/6 451/1/6 458/1/6
f 455/1/6 456/1/6 459/1/6
f 459/1/6 456/1/6 460/1/6
f 458/1/6 451/1/6 461/1/6
f 461/1/6 451/1/6 462/1/6
f 462/1/6 451/1/6 463/1/6
f 463/1/6 451/1/6 464/1/6
f 452/1/6 453/1/6 465/1/6
f 465/1/6 453/1/6 466/1/6
f 462/1/6 463/1/6 467/1/6
f 467/1/6 463/1/6 468/1/6
f 469/1/6 470/1/6 471/1/6
f 471/1/6 470/1/6 472/1/6
f 473/1/6 474/1/6 475/1/6
f 475/1/6 474/1/6 476/1/6
f 477/1/6 478/1/6 479/1/6
f 477/1/6 479/1/6 483/1/6
f 479/1/6 480/1/6 483/1/6
f 483/1/6 480/1/6 484/1/6
f 481/1/6 482/1/6 485/1/6
f 485/1/6 482/1/6 486/1/6
f 477/1/6 483/1/6 487/1/6
f 487/1/6 483/1/6 488/1/6
f 489/1/6 490/1/6 491/1/6
f 491/1/6 490/1/6 492/1/6
f 492/1/6 490/1/6 493/1/6
f 493/1/6 490/1/6 494/1/6
