# MagicaVoxel @ Ephtracy

# group
o awake-head2

# material
mtllib goodnight-moon-12-awake-head2.mtl
usemtl palette

# normals
vn -1 0 0
vn 1 0 0
vn 0 0 1
vn 0 0 -1
vn 0 -1 0
vn 0 1 0

# texcoords
vt 0.0332031 0.5
vt 0.0527344 0.5
vt 0.927734 0.5
vt 0.994141 0.5

# verts
v 9.2 6.5 5.4
v 9.2 6.5 4.9
v 9.2 6.7 5.2
v 9.2 6.7 5.1
v 9.2 6.8 5.3
v 9.2 6.8 5.2
v 9.2 6.8 5.1
v 9.2 6.8 5
v 9.2 6.9 5.4
v 9.2 6.9 5.3
v 9.2 6.9 5
v 9.2 6.9 4.9
v 9.3 6.5 5.5
v 9.3 6.5 5.4
v 9.3 6.5 4.9
v 9.3 6.5 4.8
v 9.3 6.9 5.4
v 9.3 6.9 5.3
v 9.3 6.9 5
v 9.3 6.9 4.9
v 9.3 7 5.4
v 9.3 7 5.2
v 9.3 7 5.1
v 9.3 7 4.9
v 9.3 7.1 5.5
v 9.3 7.1 5.4
v 9.3 7.1 5.3
v 9.3 7.1 5.2
v 9.3 7.1 5
v 9.3 7.1 4.9
v 9.3 7.1 4.8
v 9.3 7.2 5.4
v 9.3 7.2 5.3
v 9.3 7.2 5.2
v 9.3 7.2 5.1
v 9.3 7.2 5
v 9.3 7.2 4.9
v 9.4 6.5 5.6
v 9.4 6.5 5.5
v 9.4 6.5 4.8
v 9.4 6.5 4.7
v 9.4 7.1 5.6
v 9.4 7.1 5.5
v 9.4 7.1 5.4
v 9.4 7.1 4.9
v 9.4 7.1 4.8
v 9.4 7.1 4.7
v 9.4 7.2 5.5
v 9.4 7.2 5.4
v 9.4 7.2 5.3
v 9.4 7.2 5.2
v 9.4 7.2 5.1
v 9.4 7.2 5
v 9.4 7.2 4.9
v 9.4 7.2 4.8
v 9.4 7.3 5.4
v 9.4 7.3 4.9
v 9.5 6.4 5.5
v 9.5 6.4 4.8
v 9.5 6.5 5.7
v 9.5 6.5 5.6
v 9.5 6.5 5.5
v 9.5 6.5 4.8
v 9.5 6.5 4.7
v 9.5 6.5 4.6
v 9.5 7.1 5.6
v 9.5 7.1 5.5
v 9.5 7.1 4.8
v 9.5 7.1 4.7
v 9.5 7.2 5.7
v 9.5 7.2 5.5
v 9.5 7.2 5.4
v 9.5 7.2 4.9
v 9.5 7.2 4.8
v 9.5 7.2 4.6
v 9.5 7.3 5.5
v 9.5 7.3 5.4
v 9.5 7.3 4.9
v 9.5 7.3 4.8
v 9.6 7.2 5.6
v 9.6 7.2 5.5
v 9.6 7.2 4.8
v 9.6 7.2 4.7
v 9.6 7.3 5.6
v 9.6 7.3 5.5
v 9.6 7.3 4.8
v 9.6 7.3 4.7
v 9.7 7.8 5.6
v 9.7 7.8 5.3
v 9.7 7.8 5
v 9.7 7.8 4.7
v 9.7 7.9 5.6
v 9.7 7.9 5.3
v 9.7 7.9 5
v 9.7 7.9 4.7
v 9.8 7.3 5.6
v 9.8 7.3 5.5
v 9.8 7.3 5.3
v 9.8 7.3 5
v 9.8 7.3 4.8
v 9.8 7.3 4.7
v 9.8 7.8 5.6
v 9.8 7.8 5.5
v 9.8 7.8 5.3
v 9.8 7.8 5
v 9.8 7.8 4.8
v 9.8 7.8 4.7
v 10 6.4 5.5
v 10 6.4 4.8
v 10 6.5 5.5
v 10 6.5 4.8
v 10.1 6.5 5.7
v 10.1 6.5 5.6
v 10.1 6.5 4.7
v 10.1 6.5 4.6
v 10.1 7.1 5.7
v 10.1 7.1 5.6
v 10.1 7.1 4.7
v 10.1 7.1 4.6
v 10.1 7.3 5.6
v 10.1 7.3 5.3
v 10.1 7.3 5
v 10.1 7.3 4.7
v 10.1 7.9 5.6
v 10.1 7.9 5.3
v 10.1 7.9 5
v 10.1 7.9 4.7
v 10.2 6.5 5.6
v 10.2 6.5 5.4
v 10.2 6.5 4.9
v 10.2 6.5 4.7
v 10.2 6.6 5.5
v 10.2 6.6 5.4
v 10.2 6.6 4.9
v 10.2 6.6 4.8
v 10.2 7.1 5.7
v 10.2 7.1 5.6
v 10.2 7.1 4.7
v 10.2 7.1 4.6
v 10.2 7.2 5.7
v 10.2 7.2 5.6
v 10.2 7.2 5.5
v 10.2 7.2 4.8
v 10.2 7.2 4.7
v 10.2 7.2 4.6
v 10.2 7.3 5.6
v 10.2 7.3 4.7
v 10.3 6.5 5.4
v 10.3 6.5 4.9
v 10.3 6.6 5.5
v 10.3 6.6 5.4
v 10.3 6.6 4.9
v 10.3 6.6 4.8
v 10.3 7.2 5.5
v 10.3 7.2 4.8
v 9.5 6.5 5.7
v 9.5 7.2 5.7
v 10.1 6.5 5.7
v 10.1 7.1 5.7
v 10.2 7.1 5.7
v 10.2 7.2 5.7
v 9.4 6.5 5.6
v 9.4 7.1 5.6
v 9.5 6.5 5.6
v 9.5 7.1 5.6
v 9.6 7.2 5.6
v 9.6 7.3 5.6
v 9.7 7.8 5.6
v 9.7 7.9 5.6
v 9.8 7.3 5.6
v 9.8 7.8 5.6
v 10.1 6.5 5.6
v 10.1 7.1 5.6
v 10.1 7.3 5.6
v 10.1 7.9 5.6
v 10.2 6.5 5.6
v 10.2 7.1 5.6
v 10.2 7.2 5.6
v 10.2 7.3 5.6
v 9.3 6.5 5.5
v 9.3 7.1 5.5
v 9.4 6.5 5.5
v 9.4 7.1 5.5
v 9.4 7.2 5.5
v 9.5 6.4 5.5
v 9.5 6.5 5.5
v 9.5 7.1 5.5
v 9.5 7.2 5.5
v 9.5 7.3 5.5
v 9.6 7.2 5.5
v 9.6 7.3 5.5
v 10 6.4 5.5
v 10 6.5 5.5
v 10.2 6.6 5.5
v 10.2 7.2 5.5
v 10.3 6.6 5.5
v 10.3 7.2 5.5
v 9.2 6.5 5.4
v 9.2 6.9 5.4
v 9.3 6.5 5.4
v 9.3 6.9 5.4
v 9.3 7.1 5.4
v 9.3 7.2 5.4
v 9.4 7.1 5.4
v 9.4 7.2 5.4
v 9.4 7.3 5.4
v 9.5 7.2 5.4
v 9.5 7.3 5.4
v 10.2 6.5 5.4
v 10.2 6.6 5.4
v 10.3 6.5 5.4
v 10.3 6.6 5.4
v 9.7 7.8 5
v 9.7 7.9 5
v 9.8 7.3 5
v 9.8 7.8 5
v 9.9 7.3 5
v 9.9 7.8 5
v 10.1 7.3 5
v 10.1 7.9 5
v 9.7 7.8 5.3
v 9.7 7.9 5.3
v 9.8 7.3 5.3
v 9.8 7.8 5.3
v 9.9 7.3 5.3
v 9.9 7.8 5.3
v 10.1 7.3 5.3
v 10.1 7.9 5.3
v 9.2 6.5 4.9
v 9.2 6.9 4.9
v 9.3 6.5 4.9
v 9.3 6.9 4.9
v 9.3 7.1 4.9
v 9.3 7.2 4.9
v 9.4 7.1 4.9
v 9.4 7.2 4.9
v 9.4 7.3 4.9
v 9.5 7.2 4.9
v 9.5 7.3 4.9
v 10.2 6.5 4.9
v 10.2 6.6 4.9
v 10.3 6.5 4.9
v 10.3 6.6 4.9
v 9.3 6.5 4.8
v 9.3 7.1 4.8
v 9.4 6.5 4.8
v 9.4 7.1 4.8
v 9.4 7.2 4.8
v 9.5 6.4 4.8
v 9.5 6.5 4.8
v 9.5 7.1 4.8
v 9.5 7.2 4.8
v 9.5 7.3 4.8
v 9.6 7.2 4.8
v 9.6 7.3 4.8
v 10 6.4 4.8
v 10 6.5 4.8
v 10.2 6.6 4.8
v 10.2 7.2 4.8
v 10.3 6.6 4.8
v 10.3 7.2 4.8
v 9.4 6.5 4.7
v 9.4 7.1 4.7
v 9.5 6.5 4.7
v 9.5 7.1 4.7
v 9.6 7.2 4.7
v 9.6 7.3 4.7
v 9.7 7.8 4.7
v 9.7 7.9 4.7
v 9.8 7.3 4.7
v 9.8 7.8 4.7
v 10.1 6.5 4.7
v 10.1 7.1 4.7
v 10.1 7.3 4.7
v 10.1 7.9 4.7
v 10.2 6.5 4.7
v 10.2 7.1 4.7
v 10.2 7.2 4.7
v 10.2 7.3 4.7
v 9.5 6.5 4.6
v 9.5 7.2 4.6
v 10.1 6.5 4.6
v 10.1 7.1 4.6
v 10.2 7.1 4.6
v 10.2 7.2 4.6
v 9.5 6.4 5.5
v 10 6.4 5.5
v 9.5 6.4 4.8
v 10 6.4 4.8
v 9.5 6.5 5.7
v 10.1 6.5 5.7
v 9.4 6.5 5.6
v 9.5 6.5 5.6
v 10.1 6.5 5.6
v 10.2 6.5 5.6
v 9.3 6.5 5.5
v 9.4 6.5 5.5
v 9.5 6.5 5.5
v 10 6.5 5.5
v 9.2 6.5 5.4
v 9.3 6.5 5.4
v 10.2 6.5 5.4
v 10.3 6.5 5.4
v 9.2 6.5 4.9
v 9.3 6.5 4.9
v 10.2 6.5 4.9
v 10.3 6.5 4.9
v 9.3 6.5 4.8
v 9.4 6.5 4.8
v 9.5 6.5 4.8
v 10 6.5 4.8
v 9.4 6.5 4.7
v 9.5 6.5 4.7
v 10.1 6.5 4.7
v 10.2 6.5 4.7
v 9.5 6.5 4.6
v 10.1 6.5 4.6
v 10.2 6.6 5.5
v 10.3 6.6 5.5
v 10.2 6.6 5.4
v 10.3 6.6 5.4
v 10.2 6.6 4.9
v 10.3 6.6 4.9
v 10.2 6.6 4.8
v 10.3 6.6 4.8
v 10.1 7.1 5.7
v 10.2 7.1 5.7
v 10.1 7.1 5.6
v 10.2 7.1 5.6
v 10.1 7.1 4.7
v 10.2 7.1 4.7
v 10.1 7.1 4.6
v 10.2 7.1 4.6
v 9.7 7.8 5.6
v 9.8 7.8 5.6
v 9.8 7.8 5.5
v 9.7 7.8 5.3
v 9.8 7.8 5.3
v 9.7 7.8 5
v 9.8 7.8 5
v 9.8 7.8 4.8
v 9.7 7.8 4.7
v 9.8 7.8 4.7
v 9.2 6.9 5.4
v 9.3 6.9 5.4
v 9.2 6.9 5.3
v 9.3 6.9 5.3
v 9.2 6.9 5
v 9.3 6.9 5
v 9.2 6.9 4.9
v 9.3 6.9 4.9
v 9.4 7.1 5.6
v 9.5 7.1 5.6
v 9.3 7.1 5.5
v 9.4 7.1 5.5
v 9.5 7.1 5.5
v 9.3 7.1 5.4
v 9.4 7.1 5.4
v 9.3 7.1 4.9
v 9.4 7.1 4.9
v 9.3 7.1 4.8
v 9.4 7.1 4.8
v 9.5 7.1 4.8
v 9.4 7.1 4.7
v 9.5 7.1 4.7
v 9.5 7.2 5.7
v 10.2 7.2 5.7
v 9.6 7.2 5.6
v 10.2 7.2 5.6
v 9.4 7.2 5.5
v 9.5 7.2 5.5
v 9.6 7.2 5.5
v 10.2 7.2 5.5
v 10.3 7.2 5.5
v 9.3 7.2 5.4
v 9.4 7.2 5.4
v 9.5 7.2 5.4
v 9.3 7.2 5.3
v 9.4 7.2 5.3
v 9.3 7.2 5.2
v 9.4 7.2 5.2
v 9.3 7.2 5.1
v 9.4 7.2 5.1
v 9.3 7.2 5
v 9.4 7.2 5
v 9.3 7.2 4.9
v 9.4 7.2 4.9
v 9.5 7.2 4.9
v 9.4 7.2 4.8
v 9.5 7.2 4.8
v 9.6 7.2 4.8
v 10.2 7.2 4.8
v 10.3 7.2 4.8
v 9.6 7.2 4.7
v 10.2 7.2 4.7
v 9.5 7.2 4.6
v 10.2 7.2 4.6
v 9.6 7.3 5.6
v 9.8 7.3 5.6
v 10.1 7.3 5.6
v 10.2 7.3 5.6
v 9.5 7.3 5.5
v 9.6 7.3 5.5
v 9.8 7.3 5.5
v 9.4 7.3 5.4
v 9.5 7.3 5.4
v 9.8 7.3 5.3
v 9.9 7.3 5.3
v 10.1 7.3 5.3
v 9.8 7.3 5
v 9.9 7.3 5
v 10.1 7.3 5
v 9.4 7.3 4.9
v 9.5 7.3 4.9
v 9.5 7.3 4.8
v 9.6 7.3 4.8
v 9.8 7.3 4.8
v 9.6 7.3 4.7
v 9.8 7.3 4.7
v 10.1 7.3 4.7
v 10.2 7.3 4.7
v 9.7 7.9 5.6
v 10.1 7.9 5.6
v 9.7 7.9 5.3
v 10.1 7.9 5.3
v 9.7 7.9 5
v 10.1 7.9 5
v 9.7 7.9 4.7
v 10.1 7.9 4.7

# faces
f 3/1/1 2/1/1 1/1/1
f 4/1/1 2/1/1 3/1/1
f 5/1/1 3/1/1 1/1/1
f 6/4/1 4/4/1 3/4/1
f 6/1/1 3/1/1 5/1/1
f 7/1/1 2/1/1 4/1/1
f 7/4/1 4/4/1 6/4/1
f 8/1/1 2/1/1 7/1/1
f 9/1/1 5/1/1 1/1/1
f 10/4/1 6/4/1 5/4/1
f 10/1/1 5/1/1 9/1/1
f 10/4/1 7/4/1 6/4/1
f 10/4/1 8/4/1 7/4/1
f 11/1/1 2/1/1 8/1/1
f 11/4/1 8/4/1 10/4/1
f 12/1/1 2/1/1 11/1/1
f 17/1/1 14/1/1 13/1/1
f 20/1/1 16/1/1 15/1/1
f 21/1/1 19/1/1 18/1/1
f 21/1/1 20/1/1 19/1/1
f 21/1/1 17/1/1 13/1/1
f 21/1/1 18/1/1 17/1/1
f 22/1/1 20/1/1 21/1/1
f 23/1/1 20/1/1 22/1/1
f 24/1/1 16/1/1 20/1/1
f 24/1/1 20/1/1 23/1/1
f 25/1/1 21/1/1 13/1/1
f 26/4/1 22/4/1 21/4/1
f 26/1/1 21/1/1 25/1/1
f 27/4/1 22/4/1 26/4/1
f 28/1/1 23/1/1 22/1/1
f 28/4/1 22/4/1 27/4/1
f 29/4/1 24/4/1 23/4/1
f 30/1/1 16/1/1 24/1/1
f 30/4/1 24/4/1 29/4/1
f 31/1/1 16/1/1 30/1/1
f 32/4/1 27/4/1 26/4/1
f 33/3/1 28/3/1 27/3/1
f 33/4/1 27/4/1 32/4/1
f 34/1/1 23/1/1 28/1/1
f 34/3/1 28/3/1 33/3/1
f 35/4/1 29/4/1 23/4/1
f 35/1/1 23/1/1 34/1/1
f 36/3/1 30/3/1 29/3/1
f 36/4/1 29/4/1 35/4/1
f 37/3/1 30/3/1 36/3/1
f 42/1/1 39/1/1 38/1/1
f 43/1/1 39/1/1 42/1/1
f 46/1/1 41/1/1 40/1/1
f 47/1/1 41/1/1 46/1/1
f 48/1/1 44/1/1 43/1/1
f 49/1/1 44/1/1 48/1/1
f 54/1/1 46/1/1 45/1/1
f 55/1/1 46/1/1 54/1/1
f 56/1/1 53/1/1 52/1/1
f 56/1/1 54/1/1 53/1/1
f 56/1/1 50/1/1 49/1/1
f 56/1/1 52/1/1 51/1/1
f 56/1/1 51/1/1 50/1/1
f 57/1/1 54/1/1 56/1/1
f 62/1/1 59/1/1 58/1/1
f 63/1/1 59/1/1 62/1/1
f 66/1/1 61/1/1 60/1/1
f 69/1/1 65/1/1 64/1/1
f 70/1/1 67/1/1 66/1/1
f 70/1/1 66/1/1 60/1/1
f 71/1/1 67/1/1 70/1/1
f 74/1/1 69/1/1 68/1/1
f 75/1/1 65/1/1 69/1/1
f 75/1/1 69/1/1 74/1/1
f 76/1/1 72/1/1 71/1/1
f 77/1/1 72/1/1 76/1/1
f 78/1/1 74/1/1 73/1/1
f 79/1/1 74/1/1 78/1/1
f 84/1/1 81/1/1 80/1/1
f 85/1/1 81/1/1 84/1/1
f 86/1/1 83/1/1 82/1/1
f 87/1/1 83/1/1 86/1/1
f 92/1/1 89/1/1 88/1/1
f 93/1/1 89/1/1 92/1/1
f 94/1/1 91/1/1 90/1/1
f 95/1/1 91/1/1 94/1/1
f 102/1/1 97/1/1 96/1/1
f 103/2/1 98/2/1 97/2/1
f 103/1/1 97/1/1 102/1/1
f 104/2/1 98/2/1 103/2/1
f 105/2/1 100/2/1 99/2/1
f 106/1/1 101/1/1 100/1/1
f 106/2/1 100/2/1 105/2/1
f 107/1/1 101/1/1 106/1/1
f 108/1/2 109/1/2 110/1/2
f 110/1/2 109/1/2 111/1/2
f 112/1/2 113/1/2 116/1/2
f 116/1/2 113/1/2 117/1/2
f 114/1/2 115/1/2 118/1/2
f 118/1/2 115/1/2 119/1/2
f 120/1/2 121/1/2 124/1/2
f 124/1/2 121/1/2 125/1/2
f 122/1/2 123/1/2 126/1/2
f 126/1/2 123/1/2 127/1/2
f 128/1/2 129/1/2 132/1/2
f 132/1/2 129/1/2 133/1/2
f 130/1/2 131/1/2 134/1/2
f 134/1/2 131/1/2 135/1/2
f 128/1/2 132/1/2 137/1/2
f 135/1/2 131/1/2 138/1/2
f 136/1/2 137/1/2 140/1/2
f 137/1/2 132/1/2 141/1/2
f 140/1/2 137/1/2 141/1/2
f 141/1/2 132/1/2 142/1/2
f 138/1/2 139/1/2 143/1/2
f 135/1/2 138/1/2 143/1/2
f 143/1/2 139/1/2 144/1/2
f 144/1/2 139/1/2 145/1/2
f 141/1/2 142/1/2 146/1/2
f 143/1/2 144/1/2 146/1/2
f 142/1/2 143/1/2 146/1/2
f 146/1/2 144/1/2 147/1/2
f 148/1/2 149/1/2 151/1/2
f 151/1/2 149/1/2 152/1/2
f 150/1/2 151/1/2 154/1/2
f 152/1/2 153/1/2 154/1/2
f 151/1/2 152/1/2 154/1/2
f 154/1/2 153/1/2 155/1/2
f 158/1/3 157/1/3 156/1/3
f 159/1/3 157/1/3 158/1/3
f 160/1/3 157/1/3 159/1/3
f 161/1/3 157/1/3 160/1/3
f 164/1/3 163/1/3 162/1/3
f 165/1/3 163/1/3 164/1/3
f 170/1/3 167/1/3 166/1/3
f 171/1/3 169/1/3 168/1/3
f 174/1/3 170/1/3 166/1/3
f 174/1/3 171/1/3 170/1/3
f 175/1/3 169/1/3 171/1/3
f 175/1/3 171/1/3 174/1/3
f 176/1/3 173/1/3 172/1/3
f 177/1/3 173/1/3 176/1/3
f 178/1/3 174/1/3 166/1/3
f 179/1/3 174/1/3 178/1/3
f 182/1/3 181/1/3 180/1/3
f 183/1/3 181/1/3 182/1/3
f 187/1/3 184/1/3 183/1/3
f 188/1/3 184/1/3 187/1/3
f 190/1/3 189/1/3 188/1/3
f 191/1/3 189/1/3 190/1/3
f 192/1/3 186/1/3 185/1/3
f 193/1/3 186/1/3 192/1/3
f 196/1/3 195/1/3 194/1/3
f 197/1/3 195/1/3 196/1/3
f 200/1/3 199/1/3 198/1/3
f 201/1/3 199/1/3 200/1/3
f 204/4/3 203/4/3 202/4/3
f 205/4/3 203/4/3 204/4/3
f 207/1/3 206/1/3 205/1/3
f 208/1/3 206/1/3 207/1/3
f 211/1/3 210/1/3 209/1/3
f 212/1/3 210/1/3 211/1/3
f 216/1/3 214/1/3 213/1/3
f 217/2/3 216/2/3 215/2/3
f 218/1/3 214/1/3 216/1/3
f 218/2/3 216/2/3 217/2/3
f 219/1/3 218/1/3 217/1/3
f 220/1/3 214/1/3 218/1/3
f 220/1/3 218/1/3 219/1/3
f 221/1/4 222/1/4 224/1/4
f 223/2/4 224/2/4 225/2/4
f 224/1/4 222/1/4 226/1/4
f 225/2/4 224/2/4 226/2/4
f 225/1/4 226/1/4 227/1/4
f 226/1/4 222/1/4 228/1/4
f 227/1/4 226/1/4 228/1/4
f 229/1/4 230/1/4 231/1/4
f 231/1/4 230/1/4 232/1/4
f 233/3/4 234/3/4 235/3/4
f 235/3/4 234/3/4 236/3/4
f 236/1/4 237/1/4 238/1/4
f 238/1/4 237/1/4 239/1/4
f 240/1/4 241/1/4 242/1/4
f 242/1/4 241/1/4 243/1/4
f 244/1/4 245/1/4 246/1/4
f 246/1/4 245/1/4 247/1/4
f 247/1/4 248/1/4 251/1/4
f 251/1/4 248/1/4 252/1/4
f 252/1/4 253/1/4 254/1/4
f 254/1/4 253/1/4 255/1/4
f 249/1/4 250/1/4 256/1/4
f 256/1/4 250/1/4 257/1/4
f 258/1/4 259/1/4 260/1/4
f 260/1/4 259/1/4 261/1/4
f 262/1/4 263/1/4 264/1/4
f 264/1/4 263/1/4 265/1/4
f 266/1/4 267/1/4 270/1/4
f 268/1/4 269/1/4 271/1/4
f 266/1/4 270/1/4 274/1/4
f 270/1/4 271/1/4 274/1/4
f 271/1/4 269/1/4 275/1/4
f 274/1/4 271/1/4 275/1/4
f 272/1/4 273/1/4 276/1/4
f 276/1/4 273/1/4 277/1/4
f 266/1/4 274/1/4 278/1/4
f 278/1/4 274/1/4 279/1/4
f 280/1/4 281/1/4 282/1/4
f 282/1/4 281/1/4 283/1/4
f 283/1/4 281/1/4 284/1/4
f 284/1/4 281/1/4 285/1/4
f 288/1/5 287/1/5 286/1/5
f 289/1/5 287/1/5 288/1/5
f 293/1/5 291/1/5 290/1/5
f 294/1/5 291/1/5 293/1/5
f 297/1/5 293/1/5 292/1/5
f 297/1/5 295/1/5 294/1/5
f 297/1/5 294/1/5 293/1/5
f 298/1/5 295/1/5 297/1/5
f 299/1/5 295/1/5 298/1/5
f 301/1/5 297/1/5 296/1/5
f 301/1/5 298/1/5 297/1/5
f 302/1/5 295/1/5 299/1/5
f 304/1/5 301/1/5 300/1/5
f 305/1/5 298/1/5 301/1/5
f 305/1/5 301/1/5 304/1/5
f 306/1/5 303/1/5 302/1/5
f 306/1/5 302/1/5 299/1/5
f 307/1/5 303/1/5 306/1/5
f 308/1/5 298/1/5 305/1/5
f 309/1/5 298/1/5 308/1/5
f 310/1/5 298/1/5 309/1/5
f 311/1/5 306/1/5 299/1/5
f 312/1/5 310/1/5 309/1/5
f 312/1/5 311/1/5 310/1/5
f 313/1/5 311/1/5 312/1/5
f 314/1/5 306/1/5 311/1/5
f 314/1/5 311/1/5 313/1/5
f 315/1/5 306/1/5 314/1/5
f 316/1/5 314/1/5 313/1/5
f 317/1/5 314/1/5 316/1/5
f 320/1/5 319/1/5 318/1/5
f 321/1/5 319/1/5 320/1/5
f 324/1/5 323/1/5 322/1/5
f 325/1/5 323/1/5 324/1/5
f 328/1/5 327/1/5 326/1/5
f 329/1/5 327/1/5 328/1/5
f 332/1/5 331/1/5 330/1/5
f 333/1/5 331/1/5 332/1/5
f 336/1/5 335/1/5 334/1/5
f 337/1/5 336/1/5 334/1/5
f 338/1/5 336/1/5 337/1/5
f 341/1/5 340/1/5 339/1/5
f 342/1/5 341/1/5 339/1/5
f 343/1/5 341/1/5 342/1/5
f 344/1/6 345/1/6 346/1/6
f 346/1/6 345/1/6 347/1/6
f 346/4/6 347/4/6 348/4/6
f 348/4/6 347/4/6 349/4/6
f 348/1/6 349/1/6 350/1/6
f 350/1/6 349/1/6 351/1/6
f 352/1/6 353/1/6 355/1/6
f 355/1/6 353/1/6 356/1/6
f 354/1/6 355/1/6 357/1/6
f 357/1/6 355/1/6 358/1/6
f 359/1/6 360/1/6 361/1/6
f 361/1/6 360/1/6 362/1/6
f 362/1/6 363/1/6 364/1/6
f 364/1/6 363/1/6 365/1/6
f 366/1/6 367/1/6 368/1/6
f 368/1/6 367/1/6 369/1/6
f 366/1/6 368/1/6 371/1/6
f 371/1/6 368/1/6 372/1/6
f 370/1/6 371/1/6 376/1/6
f 376/1/6 371/1/6 377/1/6
f 375/4/6 376/4/6 378/4/6
f 378/4/6 376/4/6 379/4/6
f 378/3/6 379/3/6 380/3/6
f 380/3/6 379/3/6 381/3/6
f 380/1/6 381/1/6 382/1/6
f 382/1/6 381/1/6 383/1/6
f 382/4/6 383/4/6 384/4/6
f 384/4/6 383/4/6 385/4/6
f 384/3/6 385/3/6 386/3/6
f 386/3/6 385/3/6 387/3/6
f 387/1/6 388/1/6 389/1/6
f 389/1/6 388/1/6 390/1/6
f 373/1/6 374/1/6 392/1/6
f 392/1/6 374/1/6 393/1/6
f 390/1/6 391/1/6 394/1/6
f 390/1/6 394/1/6 396/1/6
f 394/1/6 395/1/6 396/1/6
f 396/1/6 395/1/6 397/1/6
f 398/1/6 399/1/6 403/1/6
f 403/1/6 399/1/6 404/1/6
f 402/1/6 403/1/6 406/1/6
f 403/1/6 404/1/6 406/1/6
f 406/1/6 404/1/6 407/1/6
f 405/1/6 406/1/6 407/1/6
f 400/1/6 401/1/6 409/1/6
f 407/1/6 408/1/6 410/1/6
f 408/1/6 409/1/6 410/1/6
f 405/1/6 407/1/6 410/1/6
f 410/1/6 409/1/6 411/1/6
f 409/1/6 401/1/6 412/1/6
f 411/1/6 409/1/6 412/1/6
f 405/1/6 410/1/6 413/1/6
f 413/1/6 410/1/6 414/1/6
f 414/1/6 410/1/6 415/1/6
f 415/1/6 410/1/6 416/1/6
f 416/1/6 410/1/6 417/1/6
f 416/1/6 417/1/6 418/1/6
f 418/1/6 417/1/6 419/1/6
f 412/1/6 401/1/6 420/1/6
f 420/1/6 401/1/6 421/1/6
f 422/1/6 423/1/6 424/1/6
f 424/1/6 423/1/6 425/1/6
f 426/1/6 427/1/6 428/1/6
f 428/1/6 427/1/6 429/1/6
